<svg xmlns="http://www.w3.org/2000/svg" width="240" height="240" viewBox="0 0 240 240">

<rect x="30.51" y="30.51" width="28.58" height="28.58" rx="6.29" ry="6.29" fill="#E89A3C"/>
<rect x="30.51" y="68.11" width="28.58" height="28.58" rx="6.29" ry="6.29" fill="#82B366"/>
<rect x="30.51" y="105.71" width="28.58" height="28.58" rx="6.29" ry="6.29" fill="#E89A3C"/>
<rect x="30.51" y="143.31" width="28.58" height="28.58" rx="6.29" ry="6.29" fill="#E89A3C"/>
<rect x="30.51" y="180.91" width="28.58" height="28.58" rx="6.29" ry="6.29" fill="#E89A3C"/>
<rect x="68.11" y="30.51" width="28.58" height="28.58" rx="6.29" ry="6.29" fill="#E89A3C"/>
<rect x="68.11" y="68.11" width="28.58" height="28.58" rx="6.29" ry="6.29" fill="#D9722F"/>
<rect x="68.11" y="105.71" width="28.58" height="28.58" rx="6.29" ry="6.29" fill="#D9722F"/>
<rect x="68.11" y="143.31" width="28.58" height="28.58" rx="6.29" ry="6.29" fill="#82B366"/>
<rect x="68.11" y="180.91" width="28.58" height="28.58" rx="6.29" ry="6.29" fill="#D9722F"/>
<rect x="105.71" y="30.51" width="28.58" height="28.58" rx="6.29" ry="6.29" fill="#E8736B"/>
<rect x="105.71" y="68.11" width="28.58" height="28.58" rx="6.29" ry="6.29" fill="#E8736B"/>
<rect x="105.71" y="105.71" width="28.58" height="28.58" rx="6.29" ry="6.29" fill="#E8736B"/>
<rect x="105.71" y="143.31" width="28.58" height="28.58" rx="6.29" ry="6.29" fill="#E8736B"/>
<rect x="105.71" y="180.91" width="28.58" height="28.58" rx="6.29" ry="6.29" fill="#2BA89B"/>
<rect x="143.31" y="30.51" width="28.58" height="28.58" rx="6.29" ry="6.29" fill="#E8736B"/>
<rect x="143.31" y="68.11" width="28.58" height="28.58" rx="6.29" ry="6.29" fill="#2BA89B"/>
<rect x="143.31" y="105.71" width="28.58" height="28.58" rx="6.29" ry="6.29" fill="#2BA89B"/>
<rect x="143.31" y="143.31" width="28.58" height="28.58" rx="6.29" ry="6.29" fill="#2BA89B"/>
<rect x="143.31" y="180.91" width="28.58" height="28.58" rx="6.29" ry="6.29" fill="#5FAEDC"/>
<rect x="180.91" y="30.51" width="28.58" height="28.58" rx="6.29" ry="6.29" fill="#5FAEDC"/>
<rect x="180.91" y="68.11" width="28.58" height="28.58" rx="6.29" ry="6.29" fill="#D9722F"/>
<rect x="180.91" y="105.71" width="28.58" height="28.58" rx="6.29" ry="6.29" fill="#5FAEDC"/>
<rect x="180.91" y="143.31" width="28.58" height="28.58" rx="6.29" ry="6.29" fill="#2BA89B"/>
<rect x="180.91" y="180.91" width="28.58" height="28.58" rx="6.29" ry="6.29" fill="#5FAEDC"/>
</svg>
